<!-- Created with Inkscape (http://www.inkscape.org/) -->
<svg id="svg2" xmlns:rdf="http://www.w3.org/1999/02/22-rdf-syntax-ns#" xmlns="http://www.w3.org/2000/svg" height="38mm" width="52.41mm" version="1.1" xmlns:cc="http://creativecommons.org/ns#" xmlns:dc="http://purl.org/dc/elements/1.1/" viewBox="0 0 185.72098 134.64284">
	<g id="layer1" transform="translate(-438.2 -649.9)">
		<path id="path4147" d="m568.1 713.1c-4.873 8.44-13.3 6.896-19.79-2.592-3.785-5.534-6.085-14.01-8.804-24.15-0.6728-2.511-1.939-6.487-5.095-3.331l-12.23 13.74c-1.033 1.033-1.907 2.797-14.74 2.709-12.83-0.0878-12.73-1.443-13.97-2.676l-12.59-13.69c-3.582-3.582-4.325-1.101-5.018 3.423l-5.775 39.8c-0.8935 3.335 1.025 3.645 3.964 4.433 5.174 1.386 17.75 7.231 24.25 13.74 0.8561 0.8561 5.848 7.829 10.18 7.771 4.334-0.0585 6.36-3.668 10.48-7.784 12.95-12.95 29.44-18.72 53.1-19.16 8.701 0 19.88 4.766 28.94 11.25 10.87 7.776 19.42 20.67 22.62 32.6 0.6697 2.499 0.2017 2.487-1.645 1.992-36.2-11.62-70.43 13.33-116.5 13.33-37.18 0-67.32-30.14-67.32-67.32s30.14-67.32 67.32-67.32c25.87 0 38.15 8.321 50.46 21.79 10.23 12.23 15.8 35.1 12.13 41.47z"/>
		<path id="path4154" d="m508.9 748.7c3.229-0.0808 6.56-5.513 6.094-7.254-0.4665-1.741-12.37-1.741-12.83 0-0.4665 1.741 3.513 7.335 6.741 7.254z" fill-rule="evenodd"/>
		<g id="g4160" fill-rule="evenodd" transform="translate(.6410)">
			<path id="path4156" d="m523.8 721.7c11.49-6.636 9.015 2.154 4.085 5s-15.58 1.636-4.085-5z"/>
			<path id="path4158" d="m492.1 721.7c-11.49-6.636-9.015 2.154-4.085 5s15.58 1.636 4.085-5z"/>
		</g>
	</g>
</svg>
