<?xml version="1.0" encoding="UTF-8" standalone="no"?>
<!-- Created with Inkscape (http://www.inkscape.org/) -->

<svg
   xmlns:dc="http://purl.org/dc/elements/1.1/"
   xmlns:cc="http://creativecommons.org/ns#"
   xmlns:rdf="http://www.w3.org/1999/02/22-rdf-syntax-ns#"
   xmlns:svg="http://www.w3.org/2000/svg"
   xmlns="http://www.w3.org/2000/svg"
   xmlns:sodipodi="http://sodipodi.sourceforge.net/DTD/sodipodi-0.dtd"
   xmlns:inkscape="http://www.inkscape.org/namespaces/inkscape"
   id="svg2"
   height="200"
   width="200"
   version="1.1"
   viewBox="0 0 200.01752 199.99581"
   inkscape:version="0.91 r13725"
   sodipodi:docname="logo.svg">
  <metadata
     id="metadata13">
    <rdf:RDF>
      <cc:Work
         rdf:about="">
        <dc:format>image/svg+xml</dc:format>
        <dc:type
           rdf:resource="http://purl.org/dc/dcmitype/StillImage" />
        <dc:title />
      </cc:Work>
    </rdf:RDF>
  </metadata>
  <defs
     id="defs11" />
  <sodipodi:namedview
     pagecolor="#ffffff"
     bordercolor="#666666"
     borderopacity="1"
     objecttolerance="10"
     gridtolerance="10"
     guidetolerance="10"
     inkscape:pageopacity="0"
     inkscape:pageshadow="2"
     inkscape:window-width="1058"
     inkscape:window-height="666"
     id="namedview9"
     showgrid="false"
     units="px"
     inkscape:zoom="0.94811585"
     inkscape:cx="120.85878"
     inkscape:cy="137.173"
     inkscape:window-x="510"
     inkscape:window-y="322"
     inkscape:window-maximized="0"
     inkscape:current-layer="layer1" />
  <g
     id="layer1"
     transform="translate(-431.02564,-617.1871)"
     style="fill:#e76f51;fill-opacity:1">
    <path
       id="path4147"
       d="m 568.1,713.1 c -4.873,8.44 -13.3,6.896 -19.79,-2.592 -3.785,-5.534 -6.085,-14.01 -8.804,-24.15 -0.6728,-2.511 -1.939,-6.487 -5.095,-3.331 l -12.23,13.74 c -1.033,1.033 -1.907,2.797 -14.74,2.709 -12.83,-0.0878 -12.73,-1.443 -13.97,-2.676 l -12.59,-13.69 c -3.582,-3.582 -4.325,-1.101 -5.018,3.423 l -5.775,39.8 c -0.8935,3.335 1.025,3.645 3.964,4.433 5.174,1.386 17.75,7.231 24.25,13.74 0.8561,0.8561 5.848,7.829 10.18,7.771 4.334,-0.0585 6.36,-3.668 10.48,-7.784 12.95,-12.95 29.44,-18.72 53.1,-19.16 8.701,0 19.88,4.766 28.94,11.25 10.87,7.776 19.42,20.67 22.62,32.6 0.6697,2.499 0.2017,2.487 -1.645,1.992 -36.2,-11.62 -70.43,13.33 -116.5,13.33 -37.18,0 -67.32,-30.14 -67.32,-67.32 0,-37.18 30.14,-67.32 67.32,-67.32 25.87,0 38.15,8.321 50.46,21.79 10.23,12.23 15.8,35.1 12.13,41.47 z"
       inkscape:connector-curvature="0"
       style="fill:#e76f51;fill-opacity:1" />
    <path
       id="path4154"
       d="m 508.9,748.7 c 3.229,-0.0808 6.56,-5.513 6.094,-7.254 -0.4665,-1.741 -12.37,-1.741 -12.83,0 -0.4665,1.741 3.513,7.335 6.741,7.254 z"
       inkscape:connector-curvature="0"
       style="fill-rule:evenodd;fill:#934734;fill-opacity:1" />
    <g
       id="g4160"
       transform="translate(0.641,0)"
       style="fill-rule:evenodd;fill:#934734;fill-opacity:1">
      <path
         id="path4156"
         d="m 523.8,721.7 c 11.49,-6.636 9.015,2.154 4.085,5 -4.93,2.846 -15.58,1.636 -4.085,-5 z"
         inkscape:connector-curvature="0"
         style="fill:#934734;fill-opacity:1" />
      <path
         id="path4158"
         d="m 492.1,721.7 c -11.49,-6.636 -9.015,2.154 -4.085,5 4.93,2.846 15.58,1.636 4.085,-5 z"
         inkscape:connector-curvature="0"
         style="fill:#934734;fill-opacity:1" />
    </g>
  </g>
</svg>
