<!-- Created with Inkscape (http://www.inkscape.org/) -->
<svg id="svg2" xmlns:rdf="http://www.w3.org/1999/02/22-rdf-syntax-ns#" xmlns="http://www.w3.org/2000/svg" height="200" viewBox="0 0 200.01752 199.99581" width="200" version="1.1" xmlns:cc="http://creativecommons.org/ns#" xmlns:dc="http://purl.org/dc/elements/1.1/">
	<g id="layer1" transform="translate(-431 -617.2)">
		<rect id="rect4138" rx="15" ry="14.92" height="200" width="200" y="617.2" x="431" fill="#e76f51"/>
		<path id="path4147" fill="#fcf1ef" d="m561.1 713.9c-3.955 6.85-10.79 5.597-16.06-2.104-3.072-4.492-4.939-11.37-7.146-19.6-0.5461-2.038-1.574-5.265-4.135-2.704l-9.926 11.15c-0.8384 0.8384-1.548 2.27-11.96 2.199-10.41-0.0713-10.33-1.171-11.34-2.172l-10.22-11.11c-2.907-2.907-3.51-0.8936-4.073 2.778l-4.687 32.3c-0.7252 2.707 0.8319 2.958 3.217 3.598 4.199 1.125 14.41 5.869 19.68 11.15 0.6949 0.6949 4.747 6.354 8.263 6.307 3.518-0.0475 5.162-2.977 8.506-6.318 10.51-10.51 23.89-15.19 43.1-15.55 7.062 0 16.14 3.868 23.49 9.131 8.823 6.311 15.76 16.78 18.36 26.46 0.5436 2.028 0.1637 2.019-1.335 1.617-29.38-9.431-57.16 10.82-94.56 10.82-30.18 0-54.64-24.46-54.64-54.64s24.46-54.64 54.64-54.64c21 0 30.96 6.754 40.96 17.69 8.303 9.926 12.82 28.49 9.845 33.66z"/>
		<path id="path4154" d="m513.1 742.8c2.621-0.0656 5.324-4.475 4.946-5.888-0.3786-1.413-10.04-1.413-10.41 0-0.3786 1.413 2.851 5.953 5.471 5.888z" fill-rule="evenodd" fill="#f8d7cf"/>
		<g id="g4160" fill-rule="evenodd" transform="matrix(.8116 0 0 .8116 100.5 135.1)" fill="#f8d7cf">
			<path id="path4156" d="m523.8 721.7c11.49-6.636 9.015 2.154 4.085 5s-15.58 1.636-4.085-5z"/>
			<path id="path4158" d="m492.1 721.7c-11.49-6.636-9.015 2.154-4.085 5s15.58 1.636 4.085-5z"/>
		</g>
	</g>
</svg>
